PathFileType	4	(X/Y/Z)	Kaydara	
DataRate	CameraRate	NumFrames	NumMarkers	Units	OrigDataRate	OrigDataStartFrame	OrigNumFrames	
120.00	120.00	4	72	mm	120.00	1	268	
Frame#	Time	Hips			RightUpLeg			RightLeg			RightFoot			RightFoot_End			LeftUpLeg			LeftLeg			LeftFoot			LeftFoot_End			Spine			Spine1			Spine2			Spine3			Neck			Head			Head_End			RightShoulder			RightArm			RightForeArm			RightHand			RightHandThumb1			RightHandThumb2			RightHandThumb3			RightHandThumb3_End			RightInHandIndex			RightHandIndex1			RightHandIndex2			RightHandIndex3			RightHandIndex3_End			RightInHandMiddle			RightHandMiddle1			RightHandMiddle2			RightHandMiddle3			RightHandMiddle3_End			RightInHandRing			RightHandRing1			RightHandRing2			RightHandRing3			RightHandRing3_End			RightInHandPinky			RightHandPinky1			RightHandPinky2			RightHandPinky3			RightHandPinky3_End			LeftShoulder			LeftArm			LeftForeArm			LeftHand			LeftHandThumb1			LeftHandThumb2			LeftHandThumb3			LeftHandThumb3_End			LeftInHandIndex			LeftHandIndex1			LeftHandIndex2			LeftHandIndex3			LeftHandIndex3_End			LeftInHandMiddle			LeftHandMiddle1			LeftHandMiddle2			LeftHandMiddle3			LeftHandMiddle3_End			LeftInHandRing			LeftHandRing1			LeftHandRing2			LeftHandRing3			LeftHandRing3_End			LeftInHandPinky			LeftHandPinky1			LeftHandPinky2			LeftHandPinky3			LeftHandPinky3_End			
		X1	Y1	Z1	X2	Y2	Z2	X3	Y3	Z3	X4	Y4	Z4	X5	Y5	Z5	X6	Y6	Z6	X7	Y7	Z7	X8	Y8	Z8	X9	Y9	Z9	X10	Y10	Z10	X11	Y11	Z11	X12	Y12	Z12	X13	Y13	Z13	X14	Y14	Z14	X15	Y15	Z15	X16	Y16	Z16	X17	Y17	Z17	X18	Y18	Z18	X19	Y19	Z19	X20	Y20	Z20	X21	Y21	Z21	X22	Y22	Z22	X23	Y23	Z23	X24	Y24	Z24	X25	Y25	Z25	X26	Y26	Z26	X27	Y27	Z27	X28	Y28	Z28	X29	Y29	Z29	X30	Y30	Z30	X31	Y31	Z31	X32	Y32	Z32	X33	Y33	Z33	X34	Y34	Z34	X35	Y35	Z35	X36	Y36	Z36	X37	Y37	Z37	X38	Y38	Z38	X39	Y39	Z39	X40	Y40	Z40	X41	Y41	Z41	X42	Y42	Z42	X43	Y43	Z43	X44	Y44	Z44	X45	Y45	Z45	X46	Y46	Z46	X47	Y47	Z47	X48	Y48	Z48	X49	Y49	Z49	X50	Y50	Z50	X51	Y51	Z51	X52	Y52	Z52	X53	Y53	Z53	X54	Y54	Z54	X55	Y55	Z55	X56	Y56	Z56	X57	Y57	Z57	X58	Y58	Z58	X59	Y59	Z59	X60	Y60	Z60	X61	Y61	Z61	X62	Y62	Z62	X63	Y63	Z63	X64	Y64	Z64	X65	Y65	Z65	X66	Y66	Z66	X67	Y67	Z67	X68	Y68	Z68	X69	Y69	Z69	X70	Y70	Z70	X71	Y71	Z71	X72	Y72	Z72	

1	0.0	3446.805	859.65103	-201.189	3544.865813758764	858.0389271936854	-233.38368557505325	3390.100132301687	471.23125864614303	-300.2146039845399	3408.480277956565	36.978402124958855	-342.6047147576819	3310.9484867404935	-35.651202786988264	-178.476256468805	3359.2080007182904	834.0495207280052	-154.59198127347463	3239.582617668052	434.69354284214006	-108.68707889939455	3188.8813955778514	55.55730063429821	57.20023015338654	3211.5285739061815	10.533090164785026	241.86311292869806	3395.0689872023513	978.5870281258788	-262.26071621928037	3338.1240009409585	1039.4640852209852	-312.5493344275113	3271.323653480776	1094.5748213431698	-365.34287719667805	3199.2093811984046	1136.7768482056697	-416.07956820331077	3121.4417883392	1182.4402073201609	-466.88824003106737	3079.018823182035	1254.1745040741316	-421.47872282067374	3056.280556708584	1338.5350458229148	-287.1851002616102	3168.7232314042044	1174.1441523311642	-472.0178750887792	3253.1080921954	1170.2866725740687	-559.963202320724	3302.5417552390168	933.3428453191583	-586.3595194472699	3385.742361286532	791.9496708082385	-657.7144357609203	3384.722757289229	787.5686114551872	-676.2006748267622	3370.0542882106356	780.4913892429977	-691.47772248397	3361.398015885051	773.8883667240104	-700.2725650122347	3355.515212196806	766.9512660014791	-706.0268626114645	3392.157777098108	780.7591255081329	-671.2905342268742	3399.339489379638	759.2005296266285	-685.180046262818	3393.9720299853016	746.3617422426192	-694.8224529801282	3383.11848779059	742.6044759249232	-701.2287321859156	3369.064843370212	742.3442152274614	-706.808844566194	3395.654972453378	777.0581268369931	-665.7903395937835	3404.5543882183733	754.028029622661	-676.3626988073077	3399.1226279343355	739.6026456612317	-686.1136613322288	3386.2322569141365	734.8701715607499	-693.4727112173277	3370.954200288213	734.4884332605051	-699.3985470967054	3398.0593427924955	774.956299992847	-661.5409599254136	3408.464088003644	752.3833422651609	-667.3006431578491	3404.1490313364293	739.4219372422806	-674.9952013665765	3391.9378911680074	734.6509478356409	-681.6663957910979	3377.6781650982352	734.1943398972777	-687.0357365855382	3399.7018083654434	773.4515189687219	-656.3122524021534	3410.6520186375237	751.6882331678436	-658.3456243060197	3407.8045758717	740.802311734363	-663.2271056089656	3399.1917841550194	737.0771283662428	-667.4739068209951	3386.729212623369	736.5315251379731	-671.8739166055861	3125.1802681127247	1163.780579096178	-425.88972998801614	3065.7479141863378	1096.043622045874	-339.22103877400576	3173.722838925986	946.3268725987037	-518.392964153314	3368.721180974139	845.5328111999432	-511.03118660739716	3353.639157771253	846.9907875798091	-517.4684063167683	3353.278781043748	843.1179687423454	-547.3867864239846	3354.472483875771	838.6169363340036	-570.2548472150886	3356.703499110951	833.3213438305551	-591.0580525487172	3356.1683348107013	840.582827065685	-523.7871040719391	3347.824930356902	826.6507940114609	-557.5761887475567	3348.7801769392645	817.3553721434436	-589.4192115689007	3352.5560242176934	814.3465160385356	-609.5100044031101	3357.827637456936	813.724606115855	-626.3374547411506	3360.7093796231966	836.1801610029197	-528.5361055127078	3355.0257978343566	820.2097540898653	-564.0593294545478	3356.7028498754084	809.5313678012628	-599.3338241541783	3361.562854272494	805.6444572747737	-623.8257164493206	3367.4790179528177	804.8391201889925	-642.3610278912431	3364.0696654474223	833.4065704558491	-530.9644739850506	3361.714917980773	816.6317308432424	-564.719474827247	3363.834990325884	806.8027193436798	-595.9486727252194	3368.8724790675074	802.7764496821162	-619.8299801042016	3374.600846365944	801.8879469858318	-637.3795966194386	3368.6638256360284	830.7602104253855	-533.2929795312743	3369.1293962543523	813.6759575846762	-565.4826580200419	3371.864887981145	805.0646540351628	-591.0979194524239	3376.041277879332	801.7696214017782	-608.8111849101101	3381.4046013587495	800.7763765541341	-624.5265832573355
2	0.008	3446.805	859.65103	-201.189	3544.82942041318	858.0476293686182	-233.3208990030935	3390.145268937913	471.18961437218104	-299.9073329865777	3408.524465302012	37.027504881085896	-342.3972781227219	3311.1121717831084	-35.634953599504264	-178.30495848140026	3359.229570635013	834.0351846817262	-154.65652843818114	3239.5647287495162	434.7231625664585	-108.5524569703396	3188.808656053146	55.65818102602868	57.479590601080474	3211.541388942893	10.647901816683087	242.12025135013778	3395.136037466855	978.6111874630233	-262.2568291816598	3338.23171454285	1039.5213442701472	-312.5421034063241	3271.5549345948	1094.7899266419388	-365.3246544027845	3199.478197444148	1137.0394245786663	-416.05663656022824	3121.748975281318	1182.7517484783777	-466.8596832910588	3079.3359107925453	1254.5046555974614	-421.4823940088327	3056.5537848949634	1338.918835492882	-287.23675414991544	3169.0047659015136	1174.4435464098929	-471.9612321632932	3253.3952845494628	1170.751348590193	-559.8172150182418	3303.09841042684	934.0462196602375	-586.2112452109432	3386.3828791312326	793.317338394266	-657.8525897895468	3385.3879196809166	789.0394504056158	-676.3095103994152	3370.7410412005347	782.0610305709162	-691.6196889253995	3362.0988120918173	775.5251741019181	-700.4447504038933	3356.226861935208	768.6426662712734	-706.2303584738248	3392.8220248511716	782.2352919130143	-671.4179293182292	3400.0345524148565	760.8288829141661	-685.3364401151258	3394.686381003289	748.0866860848636	-695.022370328502	3383.8420650133407	744.3738863283398	-701.4604514065672	3369.794193044149	744.1399206123081	-707.0700855642954	3396.315330740381	778.5240902403515	-665.9372747701744	3405.2427007913575	755.636917075745	-676.5484845710562	3399.8313704241623	741.3150856160056	-686.3494532458828	3386.9518333887	736.6353698513916	-693.7480762815883	3371.679947544605	736.2819667580651	-699.7067976071388	3398.7161885943233	776.4112903915528	-661.7007770972633	3409.1430014393413	753.9572238177842	-667.5059189121306	3404.8450771074113	741.0839548220644	-675.24657167462	3392.6440301848643	736.362730339796	-681.9572706335741	3378.389940379274	735.9322315509035	-687.3581664591401	3400.3535443299397	774.8885491214186	-656.4875281344541	3411.3209260887616	753.2236689427319	-658.5715138203184	3408.4860544412177	742.4045000074627	-663.4936276543069	3399.880064739286	738.7137659647327	-667.7710401621212	3387.4221716082757	738.1902289850049	-672.2000389662819	3125.487105757476	1164.0683313462116	-425.8940745120526	3066.1054260858386	1096.3734534967869	-339.376520821857	3174.0224599047237	946.8868757793441	-518.336472957299	3368.9634643948525	846.5593743528514	-510.8275092098974	3353.9801027524954	848.1144167865397	-517.2796762312258	3353.705249643818	844.2817964440886	-547.1824058532641	3354.947690976816	839.8073593905443	-570.038871560545	3357.2100761270412	834.532738927748	-590.8318115412635	3356.4787975879103	841.7174434826466	-523.6003923224109	3348.202651230073	827.9145960674228	-557.3991320616967	3349.2086438751076	818.6711503611094	-589.2320071817257	3353.0218024882874	815.6649054339351	-609.3070488815076	3358.3281776686085	815.0251246685499	-626.1150974137222	3360.9882556432744	837.3046653814141	-528.3463541281997	3355.3531876646193	821.4548067154423	-563.8773498063249	3357.08123528583	810.8313379602666	-599.1403170185023	3361.984145564437	806.9467157518974	-623.6129932560249	3367.937328244006	806.121406328615	-642.1269718655085	3364.3244131789	834.5210400727251	-530.7724939058278	3361.991910030301	817.8466969752702	-564.5330254333561	3364.151877147349	808.0635191897966	-595.7516920173333	3369.2283360311812	804.0383744749638	-619.6142087178332	3374.9903647357323	803.1305822970799	-637.1436490400142	3368.8895781298797	831.8562075997722	-533.096823672235	3369.357373647879	814.8541305261599	-565.289571938894	3372.117609450331	806.2759100553277	-590.8956274239914	3376.3189417965505	802.9799525811005	-608.5948179827701	3381.710080321704	801.9686116565032	-624.2921228861092
3	0.017	3446.805	859.65103	-201.189	3544.771657345289	858.0486158929882	-233.27565206332687	3390.1704415567297	471.144605294343	-299.63383663218235	3408.5903068463745	37.08221924208931	-342.2300819895299	3311.3085199758775	-35.61275459670061	-178.17235786767571	3359.275240629021	834.0287120938868	-154.7051683839371	3239.563968679191	434.75746155273987	-108.44229702854278	3188.737541249864	55.757262906825616	57.70758858462679	3211.5559447772466	10.767815224785716	242.32720205382026	3395.192436983119	978.6351840380632	-262.24471038961593	3338.324817744737	1039.57873367001	-312.5211346898674	3271.7306988368796	1094.9503979087945	-365.29150379771306	3199.694109807408	1137.2515865843145	-416.018109406567	3122.0064207463483	1183.0176901806599	-466.8150300054655	3079.6111716706196	1254.7924011731345	-421.46350993433555	3056.8083192685317	1339.2545875290887	-287.25951132725885	3169.2380930052013	1174.7018249410114	-471.8870320854972	3253.6323382441374	1171.1776635952615	-559.6481571918132	3303.6593427755092	934.6831693008272	-586.0766560991344	3387.037999164939	794.6066162200597	-658.0152176185208	3386.0814661601116	790.4424822616913	-676.4347605919617	3371.4721595268443	783.568771840075	-691.7846036048373	3362.8535643538066	777.1028481930232	-700.6458492724305	3356.9991522055643	770.2760852216886	-706.4689501010736	3393.509892920822	783.639979688303	-671.5649386274689	3400.763595839034	762.3905032848252	-685.5151865615821	3395.444725257453	749.7471934642588	-695.2526068248353	3384.6178471711155	746.0804640744225	-701.7294050683963	3370.5838836940966	745.8742384277251	-707.375606364977	3396.994905290199	779.9146972850741	-666.1078668567649	3405.957951932444	757.1729795245157	-676.762781485047	3400.577366550727	742.9566757036282	-686.6229821433999	3387.7182777605144	738.3314002228537	-694.0697758322385	3372.4613232991037	738.0077928118027	-700.069217745023	3399.3888388792907	777.7880644192462	-661.8869840768659	3409.8415706209676	755.4526832495218	-667.7441583487763	3405.5691331476683	742.6687286471358	-675.5394845005894	3393.387115284529	737.9986021247795	-682.2982662027246	3379.1467377186614	737.5954477238951	-687.7382179633496	3401.01713888051	776.2439126567855	-656.6926743512148	3412.002673863773	754.6751305034228	-658.8352754703288	3409.1860541178667	743.9228098147775	-663.8056989899533	3400.592896554412	740.267086394895	-668.1203730906863	3388.1465535536054	739.7664738568282	-672.5852298337775	3125.740188965922	1164.3025909550033	-425.8834108053892	3066.3938472334444	1096.6210187022668	-339.5253745924909	3174.2770230551205	947.390469266243	-518.3325123744036	3369.2152901157315	847.547859825712	-510.70182985576747	3354.327609920417	849.205174588565	-517.1730592831906	3354.1370792112743	845.4184501273154	-547.0611376356792	3355.427381457977	840.973953909906	-569.906621827136	3357.720372894791	835.7225634036123	-590.6897385045128	3356.7951575045554	842.8172591710163	-523.4962459536557	3348.581636190501	829.1470770198713	-557.3097356567226	3349.6364903512404	819.9589793774716	-589.1340560011771	3353.4869164443053	816.9582023413245	-609.1929376608759	3358.8287787816116	816.3034261816354	-625.980299508565	3361.2731451141026	838.3926046129181	-528.2386759304396	3355.6821351848953	822.6657313781003	-563.782149263636	3357.459153442361	812.1006158449786	-599.035244029459	3362.404934486213	808.2216123741723	-623.4881678201125	3368.395935488603	807.3794198582212	-641.979388947357	3364.58535938261	835.5975948176537	-530.6621294836893	3362.271226990163	819.0247231584062	-564.432071307505	3364.4693644772624	809.2901220046201	-595.6415571253875	3369.5847784372813	805.2691798891261	-619.4847176167576	3375.381231863662	804.3449402208377	-636.9926174085363	3369.121995278437	832.9127358369859	-532.9814507947514	3369.588697738609	815.9927289327488	-565.1803813559914	3372.3723768826176	807.4493902407797	-590.7781501086407	3376.5986796073566	804.154559561941	-608.4627742324699	3382.0183292031334	803.1275308807144	-624.1407325116942
4	0.025	3446.805	859.65103	-201.189	3544.7032636576655	858.0481663596297	-233.23853160361787	3390.2039589046644	471.0958730650178	-299.3826020821068	3408.7260833124533	37.14263104998591	-342.0812305628691	3311.590392301016	-35.5899333411912	-178.0572734944904	3359.3326705701074	834.0232644665662	-154.74717176958504	3239.582907748626	434.78586048902054	-108.36093147972458	3188.709414382601	55.84598018583654	57.91089809993368	3211.6214752152946	10.884216157818383	242.50982457390177	3395.2445418108136	978.6610768558209	-262.22557928484457	3338.411822171194	1039.6419672667457	-312.48598935485103	3271.8708890075704	1095.080870881372	-365.239549625616	3199.875533303417	1137.4411643888773	-415.95504984623915	3122.2311637687835	1183.269349864866	-466.7398601055043	3079.861526606109	1255.0676922028472	-421.40537923714794	3057.060623666622	1339.5708829740486	-287.23559324542805	3169.4376192662703	1174.9472953123125	-471.78354098127045	3253.827541952087	1171.5914466722604	-559.4446846892881	3304.220771739167	935.2921009665342	-585.916162593864	3387.70212898633	795.8580272350652	-658.1710599683208	3386.7950421450514	791.8175227203981	-676.54676933965	3372.2365116565256	785.0540004641618	-691.9419463635664	3363.649467524693	778.6605726771496	-700.8445605209396	3357.8181053444123	771.8906180665382	-706.7105305968672	3394.21375655394	785.013274639285	-671.7016270512253	3401.516663216929	763.9251922677134	-685.6867646644528	3396.2352414967213	751.3829070636978	-695.4827675960411	3385.432689570448	747.7637182609064	-702.0041297000902	3371.4195642983004	747.5865437583292	-707.6927061466279	3397.686852806318	781.2703050553259	-666.2716225294001	3406.691446232284	758.6764425999705	-676.9751970748885	3401.3499970078005	744.5675046088372	-686.9028252555057	3388.519427350154	739.9982076549547	-694.4050626441968	3373.2848709872383	739.7057187892401	-700.4516888778155	3400.071065489078	779.1271772751825	-662.0686933575159	3410.5524519706228	756.9103318277151	-667.9842526096569	3406.3122946317426	744.216788794346	-675.8418550537089	3394.156813614954	739.5989747314463	-682.6559777268916	3379.937035926183	739.2242805520584	-688.1411766155258	3401.6871104528013	777.5584002592456	-656.8962526304778	3412.6912296158985	756.0836073033311	-659.1049655259975	3409.89747782848	745.3982235330759	-664.1304712866506	3401.3222329371215	741.7780139472434	-668.4880361802925	3388.8933084081777	741.3010933305626	-672.9944255041502	3125.9603977975535	1164.5153617105489	-425.84449511073416	3066.629283270971	1096.817026122268	-339.65451241544264	3174.4968472301293	947.8821500832047	-518.4165412820882	3369.4632190038906	848.5366076157026	-510.6856255167633	3354.6694264193943	850.3006119136933	-517.1791649958358	3354.562703298859	846.5641833914589	-547.0528510616365	3355.9004278082693	842.1521701316136	-569.8874178678761	3358.2235948922525	836.9256841479386	-590.6606679042944	3357.105191030741	843.9201863981814	-523.5050396311077	3348.9511198244013	830.3855492630963	-557.3367445082014	3350.0536503510593	821.2553603601518	-589.1531834817241	3353.941478579843	818.2621522684924	-609.1951966068875	3359.319532056737	817.5944598380979	-625.9605220699159	3361.551653289012	839.4821680720316	-528.2434245057751	3356.0015754901824	823.8802811596969	-563.8024820176921	3357.8262737524306	813.3761067583371	-599.046358758463	3362.815095178516	809.5051572555658	-623.4786326857001	3368.8446820791314	808.6483082648291	-641.9455998873736	3364.839954027107	836.6746377579079	-530.6637595397211	3362.5413852515626	820.204021658609	-564.4455691386952	3364.7765784719495	810.5200390112459	-595.6463604480954	3369.9311134925983	806.5055363680344	-619.4692539235944	3375.7627169834486	805.5668887746808	-636.95418218286	3369.3482810836545	833.968426543847	-532.9773365282778	3369.8114100604175	817.1303651219928	-565.1843073283101	3372.6176686123445	808.6232095358254	-590.7740318173559	3376.869076144739	805.3309723721927	-608.4433516448779	3382.31788516052	804.2899713146461	-624.1006572786011
